<svg width="32" height="32" viewBox="0 0 32 32" fill="none" xmlns="http://www.w3.org/2000/svg">
<path d="M28.5 9V19" stroke="#3B3D49" stroke-width="1.5" stroke-linecap="round"/>
<path d="M15.5771 2.19735L2.94182 8.09382C2.17233 8.45291 2.17233 9.54709 2.94182 9.90618L15.5771 15.8027C15.8452 15.9277 16.1548 15.9277 16.4229 15.8027L29.0582 9.90618C29.8277 9.54709 29.8277 8.45291 29.0582 8.09382L16.4229 2.19735C16.1548 2.07226 15.8452 2.07226 15.5771 2.19735Z" fill="#F27C3C"/>
<path fill-rule="evenodd" clip-rule="evenodd" d="M5 12.8667L15.5771 17.8027C15.8452 17.9278 16.1548 17.9278 16.4229 17.8027L27 12.8667V19.0708C27 19.8173 26.5844 20.5016 25.922 20.8457L16.922 25.521C16.344 25.8212 15.656 25.8212 15.078 25.521L6.07802 20.8457C5.41565 20.5016 5 19.8173 5 19.0708V12.8667Z" fill="#F27C3C"/>
<path d="M7.54738 18.9643C7.72734 18.5809 8.27266 18.5809 8.45262 18.9643L9.8541 21.9502L13.0381 22.4366C13.4404 22.4981 13.6047 22.9888 13.3205 23.2801L11 25.6584L11.5424 28.9838C11.6096 29.3957 11.1723 29.7038 10.8071 29.5019L8 27.9502L5.19293 29.5019C4.82765 29.7038 4.39037 29.3957 4.45756 28.9838L5 25.6584L2.67954 23.2801C2.39533 22.9888 2.5596 22.4981 2.9619 22.4366L6.1459 21.9502L7.54738 18.9643Z" fill="url(#paint0_linear_2060_39595)"/>
<defs>
<linearGradient id="paint0_linear_2060_39595" x1="8" y1="18" x2="8" y2="30" gradientUnits="userSpaceOnUse">
<stop stop-color="#FFE55B"/>
<stop offset="1" stop-color="#F2BC40"/>
</linearGradient>
</defs>
</svg>
