<svg width="32" height="32" viewBox="0 0 32 32" fill="none" xmlns="http://www.w3.org/2000/svg">
<path d="M16 20L21.1962 17L27.5926 28.079C27.8153 28.4647 27.4605 28.9272 27.0302 28.8119L24.581 28.1557C24.3143 28.0842 24.0401 28.2425 23.9687 28.5092L23.3124 30.9584C23.1971 31.3887 22.6192 31.4647 22.3964 31.079L16 20Z" fill="#3B3D49"/>
<path d="M16.1963 20L11.0001 17L4.60369 28.079C4.38096 28.4647 4.73584 28.9272 5.16611 28.8119L7.61525 28.1557C7.88198 28.0842 8.15615 28.2425 8.22762 28.5092L8.88387 30.9584C8.99916 31.3887 9.57712 31.4647 9.79984 31.079L16.1963 20Z" fill="#3B3D49"/>
<path d="M15.506 1.28069C15.8123 1.10663 16.1877 1.10663 16.494 1.28069L26.494 6.96251C26.8068 7.14022 27 7.47223 27 7.83196V19.168C27 19.5278 26.8068 19.8598 26.494 20.0375L16.494 25.7193C16.1877 25.8934 15.8123 25.8934 15.506 25.7193L5.50599 20.0375C5.19322 19.8598 5 19.5278 5 19.168V7.83196C5 7.47223 5.19322 7.14022 5.50599 6.96251L15.506 1.28069Z" fill="#ED7839"/>
<path d="M15.5474 5.96431C15.7273 5.5809 16.2727 5.5809 16.4526 5.96431L17.5451 8.2918L20.0381 8.6727C20.4404 8.73416 20.6047 9.22485 20.3205 9.51614L18.5 11.382L18.9244 13.9838C18.9916 14.3957 18.5543 14.7038 18.189 14.5019L16 13.2918L13.811 14.5019C13.4457 14.7038 13.0084 14.3957 13.0756 13.9838L13.5 11.382L11.6795 9.51613C11.3953 9.22485 11.5596 8.73416 11.9619 8.6727L14.4549 8.2918L15.5474 5.96431Z" fill="url(#paint0_linear_2060_39607)"/>
<path d="M9.04738 13.9643C9.22734 13.5809 9.77266 13.5809 9.95262 13.9643L10.2725 14.6459L11.0381 14.7629C11.4404 14.8243 11.6047 15.315 11.3205 15.6063L10.75 16.191L10.8793 16.9838C10.9465 17.3957 10.5092 17.7038 10.1439 17.5019L9.5 17.1459L8.85605 17.5019C8.49077 17.7038 8.05349 17.3957 8.12068 16.9838L8.25 16.191L7.67954 15.6063C7.39533 15.315 7.5596 14.8243 7.9619 14.7629L8.72746 14.6459L9.04738 13.9643Z" fill="url(#paint1_linear_2060_39607)"/>
<path d="M22.0474 13.9643C22.2273 13.5809 22.7727 13.5809 22.9526 13.9643L23.2725 14.6459L24.0381 14.7629C24.4404 14.8243 24.6047 15.315 24.3205 15.6063L23.75 16.191L23.8793 16.9838C23.9465 17.3957 23.5092 17.7038 23.1439 17.5019L22.5 17.1459L21.8561 17.5019C21.4908 17.7038 21.0535 17.3957 21.1207 16.9838L21.25 16.191L20.6795 15.6063C20.3953 15.315 20.5596 14.8243 20.9619 14.7629L21.7275 14.6459L22.0474 13.9643Z" fill="url(#paint2_linear_2060_39607)"/>
<defs>
<linearGradient id="paint0_linear_2060_39607" x1="16" y1="5" x2="16" y2="15" gradientUnits="userSpaceOnUse">
<stop stop-color="#FFE55B"/>
<stop offset="1" stop-color="#F2BC40"/>
</linearGradient>
<linearGradient id="paint1_linear_2060_39607" x1="9.5" y1="13" x2="9.5" y2="18" gradientUnits="userSpaceOnUse">
<stop stop-color="#FFE55B"/>
<stop offset="1" stop-color="#F2BC40"/>
</linearGradient>
<linearGradient id="paint2_linear_2060_39607" x1="22.5" y1="13" x2="22.5" y2="18" gradientUnits="userSpaceOnUse">
<stop stop-color="#FFE55B"/>
<stop offset="1" stop-color="#F2BC40"/>
</linearGradient>
</defs>
</svg>
