<svg width="32" height="32" viewBox="0 0 32 32" fill="none" xmlns="http://www.w3.org/2000/svg">
<path fill-rule="evenodd" clip-rule="evenodd" d="M13.0427 29.4999L12.2885 27.237L13.7115 26.7627L14.6239 29.4999H18.0427L17.2885 27.237L18.7115 26.7627L19.6239 29.4999H21.8C22.4627 29.4999 23 30.0371 23 30.6999C23 30.8656 22.8657 30.9999 22.7 30.9999H10.3C10.1343 30.9999 10 30.8656 10 30.6999C10 30.0371 10.5373 29.4999 11.2 29.4999H13.0427Z" fill="#3B3D49"/>
<path fill-rule="evenodd" clip-rule="evenodd" d="M29.2255 14.7749C29.0558 14.9445 28.9542 15.1705 28.9303 15.4093C28.2236 22.4795 22.2567 28 15.0003 28C7.4972 28 1.37265 22.0975 1.01669 14.6825C0.996955 14.2714 1.2526 13.9013 1.63595 13.7513L11.4668 9.90441C11.818 9.76701 12.0571 9.4424 12.12 9.07062C12.7997 5.05678 16.293 2 20.5003 2C24.5204 2 27.8886 4.79074 28.7734 8.54055C28.8189 8.73324 28.9126 8.91222 29.0526 9.05222L31.2932 11.2929C31.6838 11.6834 31.6838 12.3166 31.2932 12.7071L29.2255 14.7749Z" fill="#F2BC40"/>
<circle cx="24.5" cy="10.5" r="1.5" fill="#3B3D49"/>
<path d="M14.4261 25.4259C19.3212 24.5628 22.5897 19.8949 21.7265 14.9998L4 18.1255C4.86313 23.0205 9.53105 26.2891 14.4261 25.4259Z" fill="url(#paint0_linear_2060_39583)"/>
<defs>
<linearGradient id="paint0_linear_2060_39583" x1="12.8633" y1="16.5627" x2="14.4261" y2="25.4259" gradientUnits="userSpaceOnUse">
<stop stop-color="#FFE55B" stop-opacity="0"/>
<stop offset="1" stop-color="#FFE55B"/>
</linearGradient>
</defs>
</svg>
