<svg width="155" height="166" viewBox="0 0 155 166" fill="none" xmlns="http://www.w3.org/2000/svg">
<g clip-path="url(#clip0_2053_30764)">
<path d="M83.435 151.11C83.615 147.54 83.235 144.12 83.325 140.69C83.385 138.38 83.425 136.06 83.515 133.75C83.605 131.28 85.525 129.82 87.925 130.38C88.835 130.59 89.505 131.12 89.775 132.06C90.025 132.91 90.145 133.77 90.145 134.65C90.175 143.07 90.205 151.49 90.245 159.91C90.245 160.11 90.245 160.31 90.245 160.51C90.225 162.06 89.955 163.51 88.265 164.1C86.585 164.69 85.095 164.17 83.895 162.95C82.435 161.46 81.285 159.73 80.135 158C77.045 153.35 73.675 148.89 70.815 144.09C70.665 143.83 70.455 143.61 70.025 143.43C70.025 146.4 70.045 149.37 70.025 152.35C70.005 155.3 69.955 158.25 69.885 161.2C69.845 163.19 68.765 164.34 66.845 164.52C65.145 164.67 63.845 163.67 63.375 161.88C63.075 160.74 63.165 159.58 63.215 158.43C63.485 152.73 63.365 147.02 63.395 141.32C63.395 138.84 63.465 136.37 63.635 133.91C63.735 132.53 64.185 131.29 65.595 130.75C67.065 130.19 68.485 130.27 69.735 131.38C70.825 132.35 71.535 133.61 72.335 134.8C75.695 139.8 79.015 144.82 82.375 149.82C82.655 150.24 82.845 150.74 83.445 151.12L83.435 151.11Z" fill="#F2BC40"/>
<path d="M95.505 147.36C95.505 143.05 95.505 138.74 95.505 134.43C95.505 133.66 95.605 132.92 95.845 132.19C96.155 131.28 96.815 130.65 97.755 130.6C102.055 130.35 106.385 130.21 110.625 130.98C115.645 131.88 119.145 135.06 121.215 139.65C124.225 146.3 123.345 152.67 119.195 158.54C117.145 161.44 113.965 162.77 110.595 163.58C106.965 164.45 103.275 164.74 99.555 164.57C96.545 164.43 95.505 163.29 95.505 160.3C95.505 155.99 95.505 151.68 95.505 147.37V147.36ZM102.655 147.48H102.635C102.635 149.99 102.615 152.51 102.645 155.02C102.655 156 102.195 157.27 102.865 157.89C103.475 158.45 104.685 157.92 105.635 157.87C110.375 157.6 113.565 154.89 114.585 150.33C115.175 147.69 114.905 145.11 114.065 142.56C113.135 139.75 111.195 138.15 108.355 137.53C106.835 137.19 105.295 137.04 103.735 136.98C102.925 136.95 102.615 137.15 102.635 138.02C102.685 141.17 102.655 144.33 102.655 147.48Z" fill="#F2BC40"/>
<path d="M20.695 146.82C23.225 148.44 24.595 150.78 25.175 153.64C26.075 158.09 23.985 161.86 19.695 163.41C17.915 164.05 16.065 164.34 14.195 164.47C10.735 164.72 7.26499 164.86 3.80499 164.42C1.62499 164.14 0.854989 163.2 0.834989 161C0.804989 158.25 0.834989 155.49 0.834989 152.74C0.834989 146.91 0.834989 141.09 0.834989 135.26C0.834989 132.6 1.68499 131.32 4.27499 131.17C8.75499 130.91 13.285 130.59 17.715 131.79C21.615 132.85 23.955 135.38 24.425 139.43C24.735 142.12 23.685 144.34 21.625 146.07C21.475 146.2 21.305 146.3 21.145 146.42C21.025 146.52 20.905 146.62 20.705 146.8L20.695 146.82ZM11.785 159.09C12.695 159.14 13.795 158.94 14.895 158.78C16.425 158.57 17.545 157.85 17.985 156.23C18.665 153.73 17.495 151.09 15.115 150.1C13.125 149.26 11.015 149.19 8.89499 149.38C7.94499 149.47 7.50499 149.96 7.54499 150.97C7.59499 152.28 7.55499 153.59 7.43499 154.9C7.12499 158.28 7.89499 159.08 11.325 159.09C11.405 159.09 11.485 159.09 11.775 159.09H11.785ZM11.515 136.78C10.795 136.78 10.085 136.78 9.36499 136.78C8.37499 136.78 7.77499 137.2 7.74499 138.25C7.70499 139.68 7.63499 141.11 7.62499 142.54C7.62499 143.34 8.05499 143.98 8.80499 144.16C11.315 144.75 13.805 144.59 16.075 143.31C17.435 142.54 17.715 141.1 17.555 139.65C17.405 138.2 16.385 137.46 15.055 137.1C13.885 136.79 12.695 136.78 11.505 136.78H11.515Z" fill="#F2BC40"/>
<path d="M43.815 157.69C41.865 157.69 39.905 157.73 37.955 157.67C37.235 157.65 36.885 157.92 36.605 158.55C36.015 159.9 35.575 161.31 34.725 162.54C33.435 164.42 31.755 164.89 29.755 163.86C28.365 163.14 27.945 162.1 28.625 160.3C29.585 157.77 30.685 155.29 31.755 152.8C34.525 146.36 37.305 139.92 40.095 133.49C40.785 131.9 41.755 130.78 43.735 130.75C45.785 130.72 46.805 131.87 47.515 133.49C50.265 139.81 52.975 146.15 55.705 152.48C56.615 154.6 57.535 156.72 58.445 158.85C58.615 159.25 58.795 159.66 58.925 160.07C59.555 161.97 59.305 163 58.065 163.76C56.475 164.74 54.775 164.55 53.485 163.29C52.245 162.07 51.735 160.45 51.145 158.9C50.765 157.9 50.215 157.62 49.185 157.67C47.395 157.76 45.595 157.69 43.795 157.69H43.815ZM43.785 142.07C42.375 145.12 41.055 147.96 39.755 150.8C39.515 151.33 39.885 151.39 40.295 151.39C42.835 151.39 45.375 151.39 48.085 151.39C46.825 148.2 45.295 145.3 43.785 142.07Z" fill="#F2BC40"/>
<path d="M135.815 156.23C135.815 154.55 135.795 152.88 135.815 151.2C135.815 150.64 135.605 150.21 135.305 149.77C132.805 146.21 130.295 142.67 127.845 139.08C126.905 137.7 125.855 136.39 125.165 134.84C124.475 133.32 124.555 132.28 125.455 131.43C126.675 130.28 128.325 129.94 129.635 130.61C130.535 131.07 131.285 131.72 131.915 132.51C134.355 135.57 136.645 138.73 138.795 142C139.335 142.82 139.575 142.84 140.125 142C142.195 138.92 144.325 135.89 146.575 132.94C147.215 132.1 148.015 131.46 148.895 130.9C150.705 129.75 152.325 130.38 153.685 131.84C154.205 132.4 154.285 133.08 154.075 133.85C153.665 135.4 152.745 136.65 151.855 137.92C149.055 141.94 146.205 145.94 143.375 149.94C143.145 150.27 142.935 150.58 142.945 151.02C142.995 152.81 143.025 154.61 143.035 156.4C143.055 158.59 143.195 160.79 142.515 162.92C141.975 164.62 141.065 165.15 139.135 165.08C137.425 165.02 136.385 164.28 136.025 162.65C135.565 160.53 135.815 158.36 135.795 156.21L135.815 156.23Z" fill="#F2BC40"/>
<path d="M77.7749 97.9901C73.1049 97.9901 68.4449 97.9901 63.7749 97.9901C63.3349 97.9901 62.8849 97.9901 62.4749 97.8801C61.4249 97.6001 60.6949 96.5701 60.7649 95.5601C60.8349 94.5701 61.7149 93.6401 62.7649 93.4701C62.9949 93.4301 63.2449 93.4401 63.4849 93.4401C72.9749 93.4401 82.4649 93.4401 91.9549 93.4401C93.4549 93.4401 94.3849 94.1701 94.5249 95.3801C94.7049 96.9301 93.7249 97.9701 92.0049 97.9801C87.2549 97.9901 82.5149 97.9801 77.7649 97.9801L77.7749 97.9901Z" fill="#F2BC40"/>
<path d="M77.6849 108.05C74.4149 108.05 71.1449 108.05 67.8749 108.05C66.3549 108.05 65.5749 107.28 65.5549 105.81C65.5349 104.3 66.3449 103.5 67.9249 103.5C74.4649 103.5 81.0049 103.5 87.5449 103.5C89.0849 103.5 89.7449 104.2 89.7349 105.8C89.7349 107.38 89.0649 108.05 87.4949 108.05C84.2249 108.05 80.9549 108.05 77.6849 108.05Z" fill="#F2BC40"/>
<path d="M37.7949 40.2499C37.7949 42.2199 36.4849 43.4099 35.0149 43.0499C31.9649 42.2999 28.9249 41.4799 25.9049 40.5999C24.5949 40.2199 24.0049 38.9099 24.3649 37.6299C24.7049 36.4199 25.9749 35.6999 27.3049 36.0399C30.1949 36.7899 33.0749 37.5599 35.9549 38.3599C37.1149 38.6799 37.7749 39.4599 37.7849 40.2499H37.7949Z" fill="#F2BC40"/>
<path d="M115.095 40.7399C115.095 39.5499 115.685 38.7299 116.795 38.4199C119.785 37.5699 122.785 36.7699 125.795 36.0099C126.975 35.7099 128.195 36.4999 128.525 37.6199C128.885 38.8599 128.365 40.1799 127.125 40.5499C124.035 41.4699 120.925 42.3199 117.795 43.0699C116.385 43.4099 115.125 42.2099 115.105 40.7399H115.095Z" fill="#F2BC40"/>
<path d="M55.0249 19.4199C55.0449 20.6099 54.4949 21.3499 53.5349 21.7499C52.4349 22.2099 51.4949 21.8499 50.7549 20.9899C49.2749 19.2599 47.8349 17.5099 46.3749 15.7699C45.8649 15.1599 45.3149 14.5699 44.8649 13.9199C44.1449 12.8699 44.3149 11.5899 45.2249 10.7799C46.1849 9.9299 47.5849 9.8699 48.4549 10.8599C50.5649 13.2499 52.5749 15.7199 54.6149 18.1699C54.9249 18.5499 55.0549 19.0099 55.0349 19.4099L55.0249 19.4199Z" fill="#F2BC40"/>
<path d="M110.605 12.6801C110.645 13.2201 110.365 13.7401 109.975 14.2101C108.085 16.4701 106.215 18.7501 104.285 20.9901C103.295 22.1401 101.955 22.2601 100.885 21.4001C99.8049 20.5301 99.6649 19.1101 100.645 17.9001C102.505 15.6101 104.415 13.3601 106.315 11.1101C107.055 10.2401 108.005 9.89014 109.095 10.3401C110.055 10.7401 110.605 11.4801 110.585 12.6801H110.605Z" fill="#F2BC40"/>
<path d="M75.125 6.91979C75.125 5.48979 75.115 4.04979 75.125 2.61979C75.145 1.06979 76.105 0.0197874 77.485 -0.000212634C78.915 -0.0202126 79.905 1.04979 79.915 2.66979C79.925 5.53979 79.935 8.40979 79.915 11.2798C79.915 12.8398 78.945 13.8798 77.555 13.8998C76.125 13.9198 75.145 12.8598 75.125 11.2298C75.105 9.79979 75.125 8.35979 75.125 6.92979V6.91979Z" fill="#F2BC40"/>
<path d="M77.2949 19.8902C59.3449 19.8502 44.8349 33.3402 43.0249 50.5902C46.4549 50.2602 53.2849 49.9502 61.2349 51.5902C62.9949 49.2502 65.5249 47.6502 68.3249 47.0202L67.7149 42.2202C67.5249 40.7002 68.6749 39.3202 70.2549 39.2802C71.6249 39.2502 72.7549 40.3602 72.9249 41.7202L73.5949 47.0102C74.1249 47.1302 74.6549 47.2602 75.1749 47.4502C76.4749 47.9202 77.6349 48.6002 78.6649 49.4302C78.7249 49.3702 78.7849 49.3102 78.8549 49.2602L83.6849 45.7002C84.9149 44.7902 86.6849 45.1302 87.4949 46.4802C88.1949 47.6602 87.7749 49.1902 86.6749 50.0002L81.9549 53.4802C81.9549 53.4802 81.9249 53.4902 81.9149 53.5002C83.1249 55.9402 83.5249 58.7702 82.9049 61.5602C85.6049 63.7302 88.2049 66.2902 90.6149 69.3402L90.6949 69.4402C90.9549 69.8102 95.6449 76.4902 95.7349 83.2202C105.075 77.2002 111.365 66.7702 111.585 54.9302C111.945 36.2202 96.9749 19.9502 77.2949 19.9002V19.8902Z" fill="#F2BC40"/>
<path d="M77.0449 63.76C74.9149 62.32 71.9449 63.56 71.5549 66.11C70.4049 73.56 72.4349 80.7799 76.6849 86.4499C77.7249 87.8399 79.4249 88.62 81.1449 88.42C83.0949 88.2 84.9949 87.8099 86.8349 87.2699C89.1449 86.5899 90.7049 84.3799 90.4049 81.99C89.9349 78.28 87.6949 74.27 86.4549 72.51C83.5849 68.88 80.3849 66.02 77.0449 63.76Z" fill="#F2BC40"/>
<path d="M63.865 57.7C57.495 55.89 51.565 55.54 47.425 55.6C44.815 55.64 42.935 58.05 43.405 60.61C43.875 63.17 44.655 65.69 45.665 68.02C46.285 69.44 47.655 70.38 49.195 70.5C57.185 71.16 62.525 66.94 65.565 63.32C67.215 61.36 66.315 58.38 63.855 57.68L63.865 57.7Z" fill="#F2BC40"/>
</g>
<defs>
<clipPath id="clip0_2053_30764">
<rect width="153.35" height="165.11" fill="white" transform="translate(0.824951)"/>
</clipPath>
</defs>
</svg>
