<svg width="24" height="24" viewBox="0 0 24 24" fill="none" xmlns="http://www.w3.org/2000/svg">
<path d="M5.6 15V11H3.20711C2.76165 11 2.53857 10.4614 2.85355 10.1464L10.6464 2.35355C10.8417 2.15829 11.1583 2.15829 11.3536 2.35355L19.1464 10.1464C19.4614 10.4614 19.2383 11 18.7929 11H16.4V12" stroke="#444444" stroke-width="1.5" stroke-linecap="round" stroke-linejoin="round"/>
<path d="M6 18H12" stroke="#444444" stroke-width="1.5" stroke-linecap="round" stroke-linejoin="round"/>
<path d="M6 21H13" stroke="#444444" stroke-width="1.5" stroke-linecap="round" stroke-linejoin="round"/>
<path d="M17.5516 13.9085C17.735 13.5369 18.265 13.5369 18.4484 13.9085L19.3531 15.7417C19.426 15.8893 19.5667 15.9916 19.7296 16.0153L21.7527 16.3092C22.1628 16.3688 22.3266 16.8728 22.0298 17.1621L20.5659 18.5891C20.448 18.7039 20.3943 18.8694 20.4221 19.0316L20.7677 21.0466C20.8377 21.455 20.409 21.7665 20.0422 21.5736L18.2327 20.6223C18.087 20.5457 17.913 20.5457 17.7673 20.6223L15.9578 21.5736C15.591 21.7665 15.1623 21.455 15.2323 21.0466L15.5779 19.0316C15.6057 18.8694 15.552 18.7039 15.4341 18.5891L13.9702 17.1621C13.6734 16.8728 13.8372 16.3688 14.2473 16.3092L16.2704 16.0153C16.4333 15.9916 16.574 15.8893 16.6469 15.7417L17.5516 13.9085Z" stroke="#F2BC40" stroke-width="1.5"/>
</svg>
