<svg width="24" height="24" viewBox="0 0 24 24" fill="none" xmlns="http://www.w3.org/2000/svg">
<path fill-rule="evenodd" clip-rule="evenodd" d="M12 20C18.0751 20 23 15.9706 23 11C23 6.02944 18.0751 2 12 2C5.92487 2 1 6.02944 1 11C1 13.3916 2.14015 15.5653 4 17.1772V20.8981C4 21.3277 4.50596 21.5573 4.82925 21.2744L7.27867 19.1312C8.70929 19.6882 10.3101 20 12 20Z" fill="#3B3D49"/>
<path d="M15.9998 7V14.4276H14.4609V7H15.9998Z" fill="#F2BC40"/>
<path d="M8.16199 14.4276H6.5L9.07505 7H11.0551L13.6199 14.4276H11.9681L11.409 12.7144H8.72111L8.16199 14.4276ZM9.11096 11.514H11.0192L10.0907 8.67225H10.0394L9.11096 11.514Z" fill="#F2BC40"/>
</svg>
