<svg width="49" height="48" viewBox="0 0 49 48" fill="none" xmlns="http://www.w3.org/2000/svg">
<path fill-rule="evenodd" clip-rule="evenodd" d="M27.5287 7.65105L12.5 16.0003H6.5C5.39543 16.0003 4.5 16.8958 4.5 18.0003V30.0003C4.5 31.1049 5.39543 32.0003 6.5 32.0003H12.5L27.5287 40.3496C28.8618 41.0902 30.5 40.1263 30.5 38.6013V9.39936C30.5 7.87439 28.8618 6.91046 27.5287 7.65105Z" fill="#BEBEBE"/>
<path d="M34.5 16.4551C36.8304 17.5533 38.5 20.5166 38.5 23.9999C38.5 27.4831 36.8304 30.4464 34.5 31.5446" stroke="#BEBEBE" stroke-width="3" stroke-linecap="round"/>
<path d="M38.5 12.3779C41.9505 13.7101 44.5 18.4084 44.5 23.9999C44.5 29.5914 41.9505 34.2897 38.5 35.6218" stroke="#BEBEBE" stroke-width="3" stroke-linecap="round"/>
</svg>
